<svg id="Capa_1" enable-background="new 0 0 512 512" height="512" viewBox="0 0 512 512" width="512"
    xmlns="http://www.w3.org/2000/svg">
    <g>
        <path
            d="m437.028 75c-48.345-48.345-112.627-74.972-181-74.972s-132.654 26.628-180.999 74.972c-67.028 67.029-89.361 162.041-66.132 247.912 1.77 6.539 7.699 11.079 14.478 11.079h465.308c6.779 0 12.709-4.54 14.478-11.079 5.869-21.697 8.839-44.205 8.839-66.912 0-68.372-26.627-132.655-74.972-181zm39.866 228.995h-441.73c-30.611-141.168 77.498-273.97 220.865-273.97 143.254 0 251.499 132.691 220.865 273.97z" />
        <path
            d="m256.029 128.301c8.283 0 14.998-6.715 14.998-14.998v-28.284c0-8.283-6.715-14.998-14.998-14.998s-14.998 6.715-14.998 14.998v28.284c-.001 8.283 6.715 14.998 14.998 14.998z" />
        <path
            d="m183.528 100.427c-4.143-7.174-13.314-9.634-20.488-5.49-7.174 4.141-9.631 13.314-5.49 20.488l14.141 24.495c2.778 4.812 7.819 7.502 13.003 7.502 11.436 0 18.771-12.461 12.975-22.5z" />
        <path
            d="m139.949 171.663-24.494-14.142c-7.174-4.144-16.346-1.685-20.488 5.49-4.142 7.173-1.684 16.347 5.49 20.488 26.63 15.375 26.786 16.154 31.979 16.154 15.28 0 20.777-20.333 7.513-27.99z" />
        <path
            d="m113.332 241.002h-28.284c-8.283 0-14.998 6.715-14.998 14.998s6.715 14.998 14.998 14.998h28.284c8.283 0 14.998-6.715 14.998-14.998s-6.715-14.998-14.998-14.998z" />
        <path
            d="m383.727 256c0 8.283 6.715 14.998 14.998 14.998h28.284c8.283 0 14.998-6.715 14.998-14.998s-6.715-14.998-14.998-14.998h-28.284c-8.283 0-14.998 6.715-14.998 14.998z" />
        <path
            d="m396.603 157.521-24.494 14.142c-7.174 4.141-9.631 13.315-5.49 20.488 4.144 7.178 13.32 9.63 20.488 5.49l24.494-14.142c7.174-4.141 9.631-13.315 5.49-20.488-4.141-7.174-13.314-9.633-20.488-5.49z" />
        <path
            d="m349.018 94.937c-7.176-4.143-16.347-1.683-20.488 5.49l-14.141 24.495c-4.142 7.174-1.684 16.347 5.49 20.488 7.178 4.145 16.349 1.68 20.488-5.49l14.141-24.495c4.142-7.174 1.684-16.347-5.49-20.488z" />
        <path
            d="m292.418 198.4-46.995 46.995c-9.48 9.479-2.633 25.604 10.605 25.604 3.838 0 7.677-1.465 10.605-4.393l46.995-46.995c5.857-5.857 5.857-15.354 0-21.21-5.856-5.858-15.353-5.858-21.21-.001z" />
        <path
            d="m348.144 375.032c-.012-.061-.023-.12-.036-.181-1.608-7.888-8.344-13.713-16.381-14.167-8.039-.434-15.387 4.577-17.873 12.233-.131.406-21.93 76.895-22.047 77.306l-22.7-76.938c-.052-.179-.108-.355-.167-.531-2.564-7.634-9.966-12.578-18.001-12.051-8.216.55-14.871 6.684-16.265 14.517l-21.323 118.143c-1.472 8.151 3.944 15.952 12.096 17.424 8.155 1.472 15.952-3.945 17.423-12.096l12.131-67.214 20.025 67.873c.052.179.108.355.167.531 5.438 16.193 28.408 16.09 33.688-.169.056-.173.109-.347.159-.52l19.332-67.817 12.894 67.467c1.555 8.137 9.411 13.473 17.547 11.917 8.136-1.555 13.471-9.411 11.916-17.547z" />
        <path
            d="m419.04 360.655c-8.283 0-14.998 6.715-14.998 14.998v121.319c0 8.283 6.715 14.998 14.998 14.998s14.998-6.715 14.998-14.998v-121.318c0-8.284-6.715-14.999-14.998-14.999z" />
        <path
            d="m164.189 427.001c4.419-6.739 6.979-14.788 6.979-23.427 0-23.667-19.248-42.915-42.915-42.915h-35.236c-8.279 0-14.998 6.709-14.998 14.998v121.316c0 8.285 6.726 14.998 14.998 14.998h.07c.32 0 32.516-.14 41.325-.14 26.277 0 47.655-21.378 47.655-47.655 0-15.018-6.989-28.436-17.878-37.175zm-35.936-36.346c7.129 0 12.919 5.789 12.919 12.919 0 7.119-5.789 12.909-12.919 12.909-2.63 0-7.529.02-12.869.04h-7.369v-25.867h20.238zm6.159 91.18c-4.839 0-16.618.04-26.397.08v-35.376c2.18-.01 4.43-.02 6.619-.02h19.778c9.739 0 17.658 7.919 17.658 17.658.001 9.728-7.919 17.658-17.658 17.658z" />
    </g>
</svg>