<svg id="Capa_1" enable-background="new 0 0 512 512" height="512" viewBox="0 0 512 512" width="512" xmlns="http://www.w3.org/2000/svg"><g><path d="m461 205c0-113.037-91.963-205-205-205s-205 91.963-205 205c0 97.581 68.538 179.446 160 200.012v76.988h-15c-8.284 0-15 6.716-15 15s6.716 15 15 15h120c8.284 0 15-6.716 15-15s-6.716-15-15-15h-15v-76.988c91.462-20.566 160-102.431 160-200.012zm-380 0c0-96.495 78.505-175 175-175s175 78.505 175 175-78.505 175-175 175-175-78.505-175-175zm190 277h-30v-72.551c4.955.36 9.955.551 15 .551s10.045-.191 15-.551z"/><path d="m174.683 144.896c2.929 2.929 6.768 4.394 10.606 4.394s7.678-1.465 10.606-4.394c5.858-5.857 5.858-15.355 0-21.213l-9.874-9.874c15.652-12.039 34.472-20.148 54.979-22.831v14.022c0 8.284 6.716 15 15 15s15-6.716 15-15v-14.022c20.507 2.683 39.327 10.792 54.978 22.831l-9.874 9.874c-5.858 5.857-5.858 15.355 0 21.213 2.929 2.929 6.768 4.394 10.606 4.394s7.678-1.465 10.606-4.394l9.874-9.874c12.039 15.651 20.148 34.472 22.831 54.978h-14.021c-8.284 0-15 6.716-15 15s6.716 15 15 15h14.026c-2.609 20.066-10.44 38.927-22.828 54.985l-9.88-9.88c-5.857-5.857-15.355-5.857-21.213 0s-5.858 15.355 0 21.213l21.213 21.213c2.929 2.929 6.768 4.394 10.606 4.394s7.678-1.465 10.606-4.394c.37-.37.715-.754 1.038-1.151 26.725-27.284 41.432-63.22 41.432-101.38 0-39.404-15.807-75.181-41.403-101.341-.332-.41-1.845-1.923-2.255-2.255-26.161-25.597-61.937-41.404-101.342-41.404s-75.181 15.807-101.342 41.404c-.41.331-1.923 1.845-2.255 2.255-25.596 26.16-41.403 61.937-41.403 101.341 0 38.16 14.707 74.096 41.431 101.379.323.397.669.781 1.038 1.151 2.929 2.929 6.768 4.394 10.606 4.394s7.678-1.465 10.606-4.394l21.213-21.213c5.858-5.857 5.858-15.355 0-21.213-5.857-5.857-15.355-5.857-21.213 0l-9.88 9.88c-12.388-16.057-20.219-34.919-22.828-54.985h14.027c8.284 0 15-6.716 15-15s-6.716-15-15-15h-14.022c2.683-20.507 10.792-39.327 22.831-54.978z"/><circle cx="226" cy="325" r="15"/><circle cx="286" cy="325" r="15"/><path d="m266.606 215.606 35.355-35.355c5.858-5.857 5.858-15.355 0-21.213-5.857-5.857-15.355-5.857-21.213 0l-35.355 35.355c-5.858 5.857-5.858 15.355 0 21.213 2.929 2.929 6.768 4.394 10.607 4.394s7.678-1.465 10.606-4.394z"/></g></svg>