<svg width="163" height="65" viewBox="0 0 163 65" fill="none" xmlns="http://www.w3.org/2000/svg">
<g clip-path="url(#clip0)">
<path d="M19.0938 45.7266L23.8047 28.6406H30.8828L22.3281 54H15.8594L7.30469 28.6406H14.3828L19.0938 45.7266ZM34.3281 54V19.875H44.8281C47.8281 19.875 50.5078 20.5547 52.8672 21.9141C55.2422 23.2578 57.0938 25.1797 58.4219 27.6797C59.75 30.1641 60.4141 32.9922 60.4141 36.1641V37.7344C60.4141 40.9062 59.7578 43.7266 58.4453 46.1953C57.1484 48.6641 55.3125 50.5781 52.9375 51.9375C50.5625 53.2969 47.8828 53.9844 44.8984 54H34.3281ZM41.3594 25.5703V48.3516H44.7578C47.5078 48.3516 49.6094 47.4531 51.0625 45.6562C52.5156 43.8594 53.2578 41.2891 53.2891 37.9453V36.1406C53.2891 32.6719 52.5703 30.0469 51.1328 28.2656C49.6953 26.4688 47.5938 25.5703 44.8281 25.5703H41.3594ZM64.0469 41.0859C64.0469 38.5703 64.5312 36.3281 65.5 34.3594C66.4688 32.3906 67.8594 30.8672 69.6719 29.7891C71.5 28.7109 73.6172 28.1719 76.0234 28.1719C79.4453 28.1719 82.2344 29.2188 84.3906 31.3125C86.5625 33.4062 87.7734 36.25 88.0234 39.8438L88.0703 41.5781C88.0703 45.4688 86.9844 48.5938 84.8125 50.9531C82.6406 53.2969 79.7266 54.4688 76.0703 54.4688C72.4141 54.4688 69.4922 53.2969 67.3047 50.9531C65.1328 48.6094 64.0469 45.4219 64.0469 41.3906V41.0859ZM70.8203 41.5781C70.8203 43.9844 71.2734 45.8281 72.1797 47.1094C73.0859 48.375 74.3828 49.0078 76.0703 49.0078C77.7109 49.0078 78.9922 48.3828 79.9141 47.1328C80.8359 45.8672 81.2969 43.8516 81.2969 41.0859C81.2969 38.7266 80.8359 36.8984 79.9141 35.6016C78.9922 34.3047 77.6953 33.6562 76.0234 33.6562C74.3672 33.6562 73.0859 34.3047 72.1797 35.6016C71.2734 36.8828 70.8203 38.875 70.8203 41.5781ZM102.789 49.0078C104.039 49.0078 105.055 48.6641 105.836 47.9766C106.617 47.2891 107.023 46.375 107.055 45.2344H113.406C113.391 46.9531 112.922 48.5312 112 49.9688C111.078 51.3906 109.812 52.5 108.203 53.2969C106.609 54.0781 104.844 54.4688 102.906 54.4688C99.2812 54.4688 96.4219 53.3203 94.3281 51.0234C92.2344 48.7109 91.1875 45.5234 91.1875 41.4609V41.0156C91.1875 37.1094 92.2266 33.9922 94.3047 31.6641C96.3828 29.3359 99.2344 28.1719 102.859 28.1719C106.031 28.1719 108.57 29.0781 110.477 30.8906C112.398 32.6875 113.375 35.0859 113.406 38.0859H107.055C107.023 36.7734 106.617 35.7109 105.836 34.8984C105.055 34.0703 104.023 33.6562 102.742 33.6562C101.164 33.6562 99.9688 34.2344 99.1562 35.3906C98.3594 36.5312 97.9609 38.3906 97.9609 40.9688V41.6719C97.9609 44.2812 98.3594 46.1562 99.1562 47.2969C99.9531 48.4375 101.164 49.0078 102.789 49.0078ZM117.625 50.6719C117.625 49.5938 117.984 48.7188 118.703 48.0469C119.438 47.375 120.352 47.0391 121.445 47.0391C122.555 47.0391 123.469 47.375 124.188 48.0469C124.922 48.7188 125.289 49.5938 125.289 50.6719C125.289 51.7344 124.93 52.6016 124.211 53.2734C123.492 53.9297 122.57 54.2578 121.445 54.2578C120.336 54.2578 119.422 53.9297 118.703 53.2734C117.984 52.6016 117.625 51.7344 117.625 50.6719Z" fill="#3359C6"/>
<rect x="115" y="19.9788" width="29.8579" height="5.66122" rx="2.83061" transform="rotate(-42 115 19.9788)" fill="#3359C6"/>
<rect x="124" y="31.9788" width="29.8579" height="5.66122" rx="2.83061" transform="rotate(-42 124 31.9788)" fill="#4DDFD6"/>
</g>
<defs>
<clipPath id="clip0">
<rect width="163" height="65" fill="white"/>
</clipPath>
</defs>
</svg>
